HIERARCHY
ROOT ui
{
	 OFFSET 0 0 0
	 CHANNELS 3 XPosition YPosition Z Position
	 EndSite
	 {
	 OFFSET 0 -1 0
	 }
}
ROOT li
{
	 OFFSET 0 0 0
	 CHANNELS 3 XPosition YPosition Z Position
	 EndSite
	 {
	 OFFSET 0 -1 0
	 }
}
ROOT ul
{
	 OFFSET 0 0 0
	 CHANNELS 3 XPosition YPosition Z Position
	 EndSite
	 {
	 OFFSET 0 -1 0
	 }
}
ROOT ll
{
	 OFFSET 0 0 0
	 CHANNELS 3 XPosition YPosition Z Position
	 EndSite
	 {
	 OFFSET 0 -1 0
	 }
}
ROOT tt
{
	 OFFSET 0 0 0
	 CHANNELS 3 XPosition YPosition Z Position
	 EndSite
	 {
	 OFFSET 0 -1 0
	 }
}
ROOT tb
{
	 OFFSET 0 0 0
	 CHANNELS 3 XPosition YPosition Z Position
	 EndSite
	 {
	 OFFSET 0 -1 0
	 }
}
ROOT td
{
	 OFFSET 0 0 0
	 CHANNELS 3 XPosition YPosition Z Position
	 EndSite
	 {
	 OFFSET 0 -1 0
	 }
}
ROOT v
{
	 OFFSET 0 0 0
	 CHANNELS 3 XPosition YPosition Z Position
	 EndSite
	 {
	 OFFSET 0 -1 0
	 }
}
ROOT bn
{
	 OFFSET 0 0 0
	 CHANNELS 3 XPosition YPosition Z Position
	 EndSite
	 {
	 OFFSET 0 -1 0
	 }
}
MOTION
Frames: 16
Frame Time: 0.002
-3.8339000940322874E-4	-5.948110222816467E-4	0		0.5234899291992188	-2.45052001953125	0		-0.8904749145507812	0.12302602386474609	0		-0.376170654296875	-2.117714111328125	0		1.15173046875	-0.6125805053710938	0		2.93507177734375	-0.179782470703125	0		4.4179755859375	0.10692533874511718	0		5.58652490234375	0.19176376342773438	0		-0.22220791625976563	5.92384228515625	0		
0.002241889953613281	0.0020654709339141845	0		0.5000215759277343	-2.442470458984375	0		-0.9167706909179687	0.13022894287109374	0		-0.43172564697265625	-2.116070068359375	0		1.16732568359375	-0.6092190551757812	0		2.93398095703125	-0.15927388000488282	0		4.426525390625	0.1041635513305664	0		5.58124755859375	0.19914569091796874	0		-0.20801803588867188	5.93433642578125	0		
0.001801226019859314	0.0017840629816055298	0		0.5273842163085938	-2.4442509765625	0		-0.883206787109375	0.12945103454589843	0		-0.39532415771484375	-2.1169326171875	0		1.1609576416015626	-0.6024861450195312	0		2.943146728515625	-0.18292912292480468	0		4.42122509765625	0.11164469909667969	0		5.57497119140625	0.20755996704101562	0		-0.20803080749511718	5.9340703125	0		
0.0013456579446792603	0.0015158679485321046	0		0.4899107666015625	-2.4349423828125	0		-0.9176486206054687	0.1298104705810547	0		-0.40882766723632813	-2.11095751953125	0		1.147444580078125	-0.603619873046875	0		2.950992919921875	-0.16454046630859376	0		4.41667822265625	0.10513200378417968	0		5.58524560546875	0.18971803283691407	0		-0.2222487335205078	5.92305078125	0		
8.770089745521546E-4	0.0012650079727172853	0		0.51318798828125	-2.440626708984375	0		-0.8930952758789062	0.1302052764892578	0		-0.4114744873046875	-2.113146484375	0		1.1438680419921874	-0.6078988037109375	0		2.935514892578125	-0.16474348449707032	0		4.42208251953125	0.09647893524169922	0		5.569958984375	0.199332763671875	0		-0.22426043701171874	5.9258486328125	0		
3.967660069465637E-4	0.0010352239608764648	0		0.49544732666015623	-2.446604736328125	0		-0.9185802001953125	0.12945399475097658	0		-0.4022474670410156	-2.12251513671875	0		1.1433472900390624	-0.6082045288085938	0		2.91904248046875	-0.16390028381347657	0		4.42470849609375	0.10190423583984375	0		5.57432373046875	0.1886505126953125	0		-0.2223975372314453	5.9226005859375	0		
-9.379900246858596E-5	8.299360275268554E-4	0		0.5268631591796875	-2.443380615234375	0		-0.9400090942382813	0.1326602783203125	0		-0.4327348937988281	-2.114191162109375	0		1.164781005859375	-0.6108526611328124	0		2.957333984375	-0.1769464416503906	0		4.41120947265625	0.1006350860595703	0		5.57897900390625	0.19600381469726563	0		-0.19317738342285157	5.9419189453125	0		
0.006523561954498291	0.007533010005950928	0		0.49245538330078126	-2.4290185546875	0		-0.9114375	0.13604969787597657	0		-0.3614246826171875	-2.118557861328125	0		1.1583629150390624	-0.604001220703125	0		2.94426416015625	-0.15108885192871094	0		4.42783154296875	0.10690016174316407	0		5.58748974609375	0.19533370971679687	0		-0.19428079223632813	5.94376953125	0		
-0.0011020699739456177	5.043960213661194E-4	0		0.514684326171875	-2.43658349609375	0		-0.925969970703125	0.13419212341308595	0		-0.411947021484375	-2.11183837890625	0		1.141737060546875	-0.6089443359375	0		2.907396484375	-0.1717943115234375	0		4.41426318359375	0.10271669006347656	0		5.57285888671875	0.1871005859375	0		-0.20961228942871094	5.93388818359375	0		
-0.001619014024734497	3.881379961967468E-4	0		0.48708892822265626	-2.43326953125	0		-0.891484619140625	0.13353160095214844	0		-0.38953189086914064	-2.109323486328125	0		1.165166259765625	-0.6105308837890625	0		2.93913720703125	-0.15661589050292968	0		4.413751953125	0.10235884857177735	0		5.58235107421875	0.1865093994140625	0		-0.22300666809082031	5.92200634765625	0		
-0.0021445040702819823	3.0444601178169253E-4	0		0.5211944580078125	-2.447972900390625	0		-0.9229306030273438	0.13802159118652343	0		-0.45020834350585937	-2.111364013671875	0		1.1406298828125	-0.609265625	0		2.930281005859375	-0.17571173095703124	0		4.41909423828125	0.09394686889648438	0		5.562837890625	0.18646231079101563	0		-0.19583932495117187	5.94447021484375	0		
-0.0026782898902893066	2.541390061378479E-4	0		0.4976658935546875	-2.44065625	0		-0.8854119873046875	0.14036550903320313	0		-0.36904379272460935	-2.12379296875	0		1.1400667724609375	-0.6093709106445313	0		2.933182861328125	-0.14995823669433594	0		4.4168046875	0.10771595001220703	0		5.5713115234375	0.1859903564453125	0		-0.20929032897949218	5.9326533203125	0		
0.0038992540836334227	0.0071168351173400875	0		0.5151497192382812	-2.433004638671875	0		-0.9158741455078125	0.14490234375	0		-0.41145126342773436	-2.110074951171875	0		1.142566162109375	-0.6054903564453125	0		2.9172939453125	-0.1698458709716797	0		4.41626806640625	0.1075018768310547	0		5.56591650390625	0.19380914306640626	0		-0.19636247253417968	5.94442138671875	0		
-0.0037678329944610595	2.5569701194763184E-4	0		0.5223107299804688	-2.44414404296875	0		-0.8864894409179688	0.140443115234375	0		-0.3723503723144531	-2.125725341796875	0		1.162904052734375	-0.6108800048828125	0		2.956025146484375	-0.15362150573730468	0		4.4116220703125	0.10140641784667968	0		5.580236328125	0.18533993530273438	0		-0.20986883544921875	5.93267236328125	0		
-0.004321650981903076	3.07112991809845E-4	0		0.5107860107421875	-2.43692431640625	0		-0.9269459228515625	0.1462161865234375	0		-0.41778900146484377	-2.113886474609375	0		1.1523800048828126	-0.6077012329101562	0		2.90542138671875	-0.15582130432128907	0		4.40621044921875	0.10937467956542969	0		5.5648642578125	0.1954356231689453	0		-0.212162109375	5.93476611328125	0		
-0.004879615783691406	3.910149931907654E-4	0		0.5210208740234376	-2.444047119140625	0		-0.8835398559570312	0.14357325744628907	0		-0.3834774780273438	-2.1173916015625	0		1.1347171630859374	-0.6123634643554687	0		2.9358359375	-0.15737335205078126	0		4.410517578125	0.10122011566162109	0		5.5691396484375	0.18524105834960938	0		-0.19636077880859376	5.94357958984375	0		
